# xmcd
#
# Track frame offsets: 
#        150
#        20882
#        45532
#        66263
#
# Disc length: 1210 seconds
#
# Revision: 2
# Processed by: cddbd v1.5.2PL0 Copyright (c) Steve Scherf et al.
# Submitted via: ExactAudioCopy v1.3
#
DISCID=3304b804
DTITLE=トコブクロ - 毎朝、ボクの横にいて。
DYEAR=2004
DGENRE=JPop
TTITLE0=毎朝、ボクの横にいて。
TTITLE1=毎朝、ボクの横にいて。-Sweet drip mix-
TTITLE2=毎朝、ボクの横にいて。（カラオケ）
TTITLE3=毎朝、ボクの横にいて。-Sweet drip mix-（カラオケ）
EXTD=YEAR: 2004
EXTT0=
EXTT1=
EXTT2=
EXTT3=
PLAYORDER=
